<?xml version="1.0" encoding="iso-8859-1"?>
<!-- Generator: Adobe Illustrator 19.0.0, SVG Export Plug-In . SVG Version: 6.00 Build 0)  -->
<svg version="1.1" id="Layer_1" xmlns="http://www.w3.org/2000/svg" xmlns:xlink="http://www.w3.org/1999/xlink" x="0px" y="0px"
	 viewBox="0 0 512 512" style="enable-background:new 0 0 512 512;" xml:space="preserve">
<g>
	<g>
		<path d="M276.784,64.951V0h-41.568v64.951c-57.205,9.532-101.503,57.722-105.032,116.719H106.44v46.824h23.953L147.197,512
			h217.606l16.803-283.507h23.953V181.67h-23.744C378.287,122.672,333.989,74.482,276.784,64.951z M250.424,15.208h11.152v48.151
			c-1.849-0.081-3.707-0.128-5.576-0.128c-1.87,0-3.727,0.047-5.576,0.128V15.208z M250.424,78.578
			c1.847-0.092,3.707-0.14,5.576-0.14c1.87,0,3.729,0.048,5.576,0.14v134.707h-11.152V78.578z M250.424,228.493h11.152v28.332
			h-11.152V228.493z M129.493,213.285h-7.845v-16.408h15.913h7.604h27.699v-15.208h-27.432
			c3.445-50.596,40.994-91.973,89.784-101.268v132.884H129.493z M350.471,496.792H161.529l-13.32-224.758h29.721v-15.208h-30.623
			l-1.679-28.332h89.587v28.332h-37.005v15.208h37.005h41.568h87.006L350.471,496.792z M364.691,256.826h-87.907v-28.332h89.586
			L364.691,256.826z M390.351,213.285h-7.843H276.784V80.401c48.79,9.295,86.338,50.672,89.785,101.268h-27.436v15.208h27.702h7.6
			h15.917V213.285z"/>
	</g>
</g>
<g>
	<g>
		<path d="M256,299.428c-40.448,0-73.355,32.907-73.355,73.354v47.296h45.624v-47.296c0-15.291,12.44-27.73,27.731-27.73
			c15.291,0,27.731,12.44,27.731,27.73v47.296h45.624v-47.296C329.355,332.335,296.448,299.428,256,299.428z M314.147,404.869
			h-15.208v-32.088c0-23.677-19.262-42.938-42.939-42.938s-42.939,19.262-42.939,42.938v32.088h-15.208v-32.088
			c0-32.062,26.085-58.146,58.147-58.146s58.147,26.085,58.147,58.146V404.869z"/>
	</g>
</g>
<g>
</g>
<g>
</g>
<g>
</g>
<g>
</g>
<g>
</g>
<g>
</g>
<g>
</g>
<g>
</g>
<g>
</g>
<g>
</g>
<g>
</g>
<g>
</g>
<g>
</g>
<g>
</g>
<g>
</g>
</svg>
